<svg id="Layer_1" data-name="Layer 1" xmlns="http://www.w3.org/2000/svg" viewBox="0 0 2500 561.8"><defs><style>.cls-1{fill:#1f3966;}</style></defs><path class="cls-1" d="M2422,415.81a71.24,71.24,0,0,0-71,71.5v.14a71.24,71.24,0,0,0,70.84,71.63h.13c39.15,0,71-32.09,71-71.63a71.23,71.23,0,0,0-70.83-71.63Zm-233.54-55.32c0-54.19-45.87-98.06-102.45-98.06s-102.46,43.94-102.46,98.06,45.94,98,102.52,98,102.39-43.87,102.39-98Zm.4-190.6h113V551h-113V526.66a197,197,0,0,1-112.11,34.88c-110,0-199.25-90-199.25-201s89.21-201,199.25-201a196.58,196.58,0,0,1,112.11,34.89ZM1284,219.56V170H1168.22V551h116V373.07c0-60,64.44-92.27,109.18-92.27h1.33V170C1348.84,170,1306.69,189.8,1284,219.56ZM995.6,360.49c0-54.19-45.87-98.06-102.46-98.06s-102.45,43.94-102.45,98.06,45.93,98,102.52,98,102.39-43.87,102.39-98Zm.4-190.6h113.11V551H996V526.66a197.12,197.12,0,0,1-112.11,34.88c-110,0-199.25-90-199.25-201s89.2-201,199.25-201A196.61,196.61,0,0,1,996,194.33Zm680.57-10.18c-45.13,0-87.87,14.11-116.5,53.12V170H1447.5V551h114V350.77c0-57.92,38.48-86.34,84.88-86.34,49.66,0,78.29,30,78.29,85.54V551h112.91V308.7c0-88.68-69.9-149-161-149ZM519.93,551H638.3V.13H519.93ZM0,551.16H125.36V0H.07ZM438.45,0c0,119.3-46.07,230.34-128.22,312.83L483.45,551.16H328.67l-188.2-259,48.6-36.75A317.42,317.42,0,0,0,315.69,0H438.45Z"/></svg>